<svg xmlns="http://www.w3.org/2000/svg" xmlns:xlink="http://www.w3.org/1999/xlink" width="500" zoomAndPan="magnify" viewBox="0 0 375 374.999991" height="500" preserveAspectRatio="xMidYMid meet" version="1.0"><defs><g/><clipPath id="e77ab61af6"><path d="M 14 107 L 194 107 L 194 311.257812 L 14 311.257812 Z M 14 107 " clip-rule="nonzero"/></clipPath><clipPath id="eb123a41ad"><path d="M 14 48.007812 L 193 48.007812 L 193 180 L 14 180 Z M 14 48.007812 " clip-rule="nonzero"/></clipPath><clipPath id="cbe0c01d6a"><path d="M 50 55 L 211.652344 55 L 211.652344 183 L 50 183 Z M 50 55 " clip-rule="nonzero"/></clipPath></defs><g clip-path="url(#e77ab61af6)"><path fill="#266041" d="M 181.003906 123.285156 C 178.9375 125.730469 176.808594 128.140625 174.640625 130.507812 C 174.460938 130.707031 174.277344 130.90625 174.097656 131.097656 C 172.097656 133.261719 170.054688 135.394531 167.964844 137.492188 C 167.621094 137.835938 167.285156 138.1875 166.941406 138.527344 C 164.996094 140.457031 163.015625 142.359375 160.996094 144.242188 C 160.507812 144.699219 160.027344 145.160156 159.535156 145.613281 C 157.621094 147.367188 155.660156 149.09375 153.671875 150.808594 C 153.074219 151.328125 152.484375 151.851562 151.878906 152.371094 C 149.898438 154.050781 147.859375 155.699219 145.804688 157.339844 C 145.183594 157.835938 144.582031 158.34375 143.957031 158.832031 C 141.285156 160.925781 138.5625 162.988281 135.773438 165.023438 C 130.75 168.675781 125.730469 172.328125 120.703125 175.984375 C 113.496094 181.222656 106.566406 186.824219 97.976562 189.660156 C 91.234375 191.890625 83.992188 192.644531 76.941406 191.765625 C 76.941406 191.765625 66.824219 190.5 66.847656 190.535156 L 66.550781 190.5 L 66.710938 190.734375 L 57.878906 189.59375 L 48.894531 195.722656 L 14.492188 219.179688 L 14.492188 249.757812 C 14.492188 257.902344 21.117188 264.527344 29.257812 264.527344 L 72.691406 264.527344 C 78.140625 264.527344 83.28125 267.179688 86.433594 271.621094 C 89.59375 276.0625 90.40625 281.785156 88.613281 286.929688 L 85.679688 295.351562 C 85.242188 296.609375 85.125 297.886719 85.34375 299.050781 C 86.675781 306.316406 93.015625 311.589844 100.417969 311.589844 L 107.410156 311.589844 C 114.816406 311.589844 121.15625 306.316406 122.488281 299.050781 C 122.703125 297.882812 122.585938 296.601562 122.148438 295.347656 L 119.214844 286.929688 C 117.421875 281.78125 118.238281 276.058594 121.394531 271.617188 C 124.546875 267.171875 129.6875 264.523438 135.136719 264.523438 L 178.574219 264.523438 C 186.71875 264.523438 193.339844 257.898438 193.339844 249.753906 L 193.339844 107.40625 C 189.457031 112.863281 185.351562 118.140625 181.003906 123.285156 Z M 160.398438 255.097656 C 157.121094 255.097656 153.945312 254.019531 151.011719 252.03125 C 148.136719 254 144.949219 255.097656 141.570312 255.097656 C 138.296875 255.097656 135.117188 254.019531 132.1875 252.03125 C 129.3125 254 126.125 255.097656 122.746094 255.097656 C 109.546875 255.097656 99.210938 238.558594 99.210938 217.445312 C 99.210938 196.332031 109.546875 179.792969 122.746094 179.792969 C 126.125 179.792969 129.3125 180.886719 132.1875 182.855469 C 135.117188 180.871094 138.296875 179.792969 141.570312 179.792969 C 144.949219 179.792969 148.136719 180.886719 151.011719 182.855469 C 153.945312 180.871094 157.121094 179.792969 160.398438 179.792969 C 173.59375 179.792969 183.929688 196.332031 183.929688 217.445312 C 183.929688 238.558594 173.59375 255.097656 160.398438 255.097656 Z M 160.398438 255.097656 " fill-opacity="1" fill-rule="nonzero"/></g><path fill="#266041" d="M 42.25 171.796875 L 5.085938 197.222656 L -41.777344 229.289062 C -41.992188 229.441406 -42.121094 229.679688 -42.121094 229.941406 L -42.121094 244.882812 C -42.121094 245 -42.121094 245.359375 -41.699219 245.578125 C -41.28125 245.800781 -40.984375 245.597656 -40.890625 245.53125 L 50.246094 183.398438 Z M 42.25 171.796875 " fill-opacity="1" fill-rule="nonzero"/><g clip-path="url(#eb123a41ad)"><path fill="#266041" d="M 37.050781 163.859375 L 192.355469 57.601562 C 190.246094 51.90625 184.835938 48.011719 178.578125 48.011719 L 29.265625 48.011719 C 21.121094 48.011719 14.496094 54.640625 14.496094 62.78125 L 14.496094 179.382812 L 37.089844 163.921875 Z M 23.90625 95.074219 C 23.90625 74.3125 40.5 57.421875 60.886719 57.421875 C 62.839844 57.421875 64.859375 57.605469 67.0625 57.984375 L 70.972656 58.660156 L 70.972656 131.496094 L 67.0625 132.171875 C 64.859375 132.550781 62.839844 132.734375 60.886719 132.734375 C 40.5 132.726562 23.90625 115.835938 23.90625 95.074219 Z M 23.90625 95.074219 " fill-opacity="1" fill-rule="nonzero"/></g><path fill="#266041" d="M 61.558594 123.304688 L 61.558594 66.84375 C 61.335938 66.839844 61.109375 66.835938 60.886719 66.835938 C 45.683594 66.835938 33.320312 79.5 33.320312 95.074219 C 33.320312 110.648438 45.683594 123.3125 60.886719 123.3125 C 61.109375 123.3125 61.335938 123.3125 61.558594 123.304688 Z M 61.558594 123.304688 " fill-opacity="1" fill-rule="nonzero"/><path fill="#266041" d="M 160.398438 189.203125 C 159.503906 189.203125 158.605469 189.402344 157.710938 189.796875 C 157.8125 189.953125 157.90625 190.132812 158.007812 190.292969 C 158.285156 190.726562 158.546875 191.175781 158.816406 191.632812 C 167.53125 206.542969 167.5625 228.292969 158.816406 243.253906 C 158.546875 243.707031 158.285156 244.164062 158.007812 244.597656 C 157.902344 244.757812 157.808594 244.933594 157.710938 245.089844 C 158.605469 245.484375 159.503906 245.683594 160.398438 245.683594 C 167.078125 245.683594 174.515625 234.085938 174.515625 217.445312 C 174.515625 200.800781 167.078125 189.203125 160.398438 189.203125 Z M 160.398438 189.203125 " fill-opacity="1" fill-rule="nonzero"/><g clip-path="url(#cbe0c01d6a)"><path fill="#266041" d="M 120.414062 118.21875 L 50.15625 166.292969 L 59.671875 180.105469 L 78.113281 182.414062 C 87.867188 183.613281 97.621094 181.117188 105.570312 175.339844 L 130.238281 157.398438 C 134.3125 154.433594 138.210938 151.367188 142.027344 148.257812 C 143.210938 147.292969 144.371094 146.308594 145.53125 145.324219 C 148.269531 143.015625 150.929688 140.652344 153.535156 138.25 C 154.632812 137.238281 155.761719 136.242188 156.835938 135.210938 C 160.125 132.066406 163.304688 128.851562 166.378906 125.554688 C 167.503906 124.34375 168.570312 123.089844 169.664062 121.863281 C 171.707031 119.574219 173.707031 117.261719 175.652344 114.898438 C 176.925781 113.347656 178.1875 111.796875 179.417969 110.214844 C 181.304688 107.796875 183.128906 105.320312 184.921875 102.824219 C 186.308594 100.890625 187.6875 98.945312 189.023438 96.964844 C 191.421875 93.394531 193.796875 89.796875 196.027344 86.054688 L 196.199219 85.773438 C 201.777344 76.398438 206.828125 66.484375 211.394531 55.96875 Z M 120.414062 118.21875 " fill-opacity="1" fill-rule="nonzero"/></g><path fill="#266041" d="M 147.898438 242.90625 C 152.835938 238.015625 154.8125 227.882812 155.308594 222.578125 C 155.921875 216.070312 155.585938 209.339844 153.601562 203.074219 C 151.964844 197.90625 148.105469 189.203125 141.570312 189.203125 C 140.675781 189.203125 139.777344 189.402344 138.882812 189.796875 C 138.988281 189.953125 139.082031 190.132812 139.179688 190.292969 C 139.457031 190.726562 139.722656 191.175781 139.992188 191.632812 C 148.289062 205.828125 148.519531 225.59375 141.507812 240.375 C 141.261719 240.886719 141.019531 241.398438 140.761719 241.894531 C 140.511719 242.359375 140.253906 242.808594 139.992188 243.253906 C 139.722656 243.710938 139.457031 244.164062 139.179688 244.597656 C 139.078125 244.757812 138.984375 244.933594 138.882812 245.089844 C 139.777344 245.484375 140.675781 245.683594 141.570312 245.683594 C 144.085938 245.683594 146.175781 244.613281 147.898438 242.90625 Z M 147.898438 242.90625 " fill-opacity="1" fill-rule="nonzero"/><path fill="#266041" d="M 128.859375 242.683594 C 130.964844 240.394531 132.425781 237.207031 133.515625 234.6875 C 135.859375 229.261719 137.109375 223.355469 137.105469 217.4375 C 137.105469 211.667969 135.917969 205.902344 133.679688 200.589844 C 131.761719 196.035156 128.621094 189.210938 122.742188 189.210938 C 116.0625 189.210938 108.621094 200.804688 108.621094 217.449219 C 108.621094 234.089844 116.0625 245.6875 122.742188 245.6875 C 125.246094 245.683594 127.246094 244.449219 128.859375 242.683594 Z M 128.859375 242.683594 " fill-opacity="1" fill-rule="nonzero"/><g fill="#e76034" fill-opacity="1"><g transform="translate(65.644013, 149.610172)"><g><path d="M 28.0625 0.8125 C 23.269531 0.8125 18.9375 -0.226562 15.0625 -2.3125 C 11.195312 -4.394531 8.15625 -7.28125 5.9375 -10.96875 C 3.726562 -14.664062 2.625 -18.84375 2.625 -23.5 C 2.625 -28.15625 3.726562 -32.328125 5.9375 -36.015625 C 8.15625 -39.710938 11.195312 -42.597656 15.0625 -44.671875 C 18.9375 -46.753906 23.289062 -47.796875 28.125 -47.796875 C 32.195312 -47.796875 35.878906 -47.078125 39.171875 -45.640625 C 42.460938 -44.210938 45.226562 -42.160156 47.46875 -39.484375 L 40.484375 -33.03125 C 37.304688 -36.695312 33.367188 -38.53125 28.671875 -38.53125 C 25.765625 -38.53125 23.164062 -37.894531 20.875 -36.625 C 18.59375 -35.351562 16.8125 -33.570312 15.53125 -31.28125 C 14.257812 -29 13.625 -26.40625 13.625 -23.5 C 13.625 -20.59375 14.257812 -17.992188 15.53125 -15.703125 C 16.8125 -13.421875 18.59375 -11.640625 20.875 -10.359375 C 23.164062 -9.085938 25.765625 -8.453125 28.671875 -8.453125 C 33.367188 -8.453125 37.304688 -10.3125 40.484375 -14.03125 L 47.46875 -7.59375 C 45.226562 -4.851562 42.453125 -2.765625 39.140625 -1.328125 C 35.828125 0.0976562 32.132812 0.8125 28.0625 0.8125 Z M 28.0625 0.8125 "/></g></g></g><g fill="#e76034" fill-opacity="1"><g transform="translate(114.862137, 149.610172)"><g><path d="M 19.40625 -36.65625 C 25 -36.65625 29.296875 -35.320312 32.296875 -32.65625 C 35.296875 -30 36.796875 -25.984375 36.796875 -20.609375 L 36.796875 0 L 26.984375 0 L 26.984375 -4.5 C 25.015625 -1.144531 21.347656 0.53125 15.984375 0.53125 C 13.203125 0.53125 10.789062 0.0625 8.75 -0.875 C 6.71875 -1.8125 5.164062 -3.109375 4.09375 -4.765625 C 3.019531 -6.421875 2.484375 -8.300781 2.484375 -10.40625 C 2.484375 -13.757812 3.75 -16.398438 6.28125 -18.328125 C 8.8125 -20.253906 12.71875 -21.21875 18 -21.21875 L 26.3125 -21.21875 C 26.3125 -23.5 25.617188 -25.253906 24.234375 -26.484375 C 22.847656 -27.710938 20.769531 -28.328125 18 -28.328125 C 16.070312 -28.328125 14.175781 -28.023438 12.3125 -27.421875 C 10.457031 -26.816406 8.882812 -26 7.59375 -24.96875 L 3.828125 -32.296875 C 5.796875 -33.679688 8.15625 -34.753906 10.90625 -35.515625 C 13.664062 -36.273438 16.5 -36.65625 19.40625 -36.65625 Z M 18.59375 -6.515625 C 20.382812 -6.515625 21.972656 -6.925781 23.359375 -7.75 C 24.753906 -8.582031 25.738281 -9.800781 26.3125 -11.40625 L 26.3125 -15.109375 L 19.140625 -15.109375 C 14.835938 -15.109375 12.6875 -13.695312 12.6875 -10.875 C 12.6875 -9.53125 13.210938 -8.46875 14.265625 -7.6875 C 15.316406 -6.90625 16.757812 -6.515625 18.59375 -6.515625 Z M 18.59375 -6.515625 "/></g></g></g><g fill="#e76034" fill-opacity="1"><g transform="translate(156.291292, 149.610172)"><g><path d="M 4.828125 -49.8125 L 15.3125 -49.8125 L 15.3125 0 L 4.828125 0 Z M 4.828125 -49.8125 "/></g></g></g><g fill="#e76034" fill-opacity="1"><g transform="translate(176.502274, 149.610172)"><g><path d="M 22.015625 0.53125 C 18.210938 0.53125 14.800781 -0.257812 11.78125 -1.84375 C 8.757812 -3.4375 6.398438 -5.640625 4.703125 -8.453125 C 3.003906 -11.273438 2.15625 -14.476562 2.15625 -18.0625 C 2.15625 -21.644531 3.003906 -24.84375 4.703125 -27.65625 C 6.398438 -30.476562 8.757812 -32.679688 11.78125 -34.265625 C 14.800781 -35.859375 18.210938 -36.65625 22.015625 -36.65625 C 25.828125 -36.65625 29.226562 -35.859375 32.21875 -34.265625 C 35.21875 -32.679688 37.566406 -30.476562 39.265625 -27.65625 C 40.972656 -24.84375 41.828125 -21.644531 41.828125 -18.0625 C 41.828125 -14.476562 40.972656 -11.273438 39.265625 -8.453125 C 37.566406 -5.640625 35.21875 -3.4375 32.21875 -1.84375 C 29.226562 -0.257812 25.828125 0.53125 22.015625 0.53125 Z M 22.015625 -8.0625 C 24.703125 -8.0625 26.90625 -8.96875 28.625 -10.78125 C 30.351562 -12.59375 31.21875 -15.019531 31.21875 -18.0625 C 31.21875 -21.101562 30.351562 -23.53125 28.625 -25.34375 C 26.90625 -27.15625 24.703125 -28.0625 22.015625 -28.0625 C 19.335938 -28.0625 17.125 -27.15625 15.375 -25.34375 C 13.625 -23.53125 12.75 -21.101562 12.75 -18.0625 C 12.75 -15.019531 13.625 -12.59375 15.375 -10.78125 C 17.125 -8.96875 19.335938 -8.0625 22.015625 -8.0625 Z M 22.015625 -8.0625 "/></g></g></g><g fill="#e76034" fill-opacity="1"><g transform="translate(220.482989, 149.610172)"><g><path d="M 14.84375 -31.359375 C 16.09375 -33.097656 17.78125 -34.414062 19.90625 -35.3125 C 22.03125 -36.207031 24.484375 -36.65625 27.265625 -36.65625 L 27.265625 -26.984375 C 26.097656 -27.078125 25.3125 -27.125 24.90625 -27.125 C 21.90625 -27.125 19.554688 -26.285156 17.859375 -24.609375 C 16.160156 -22.929688 15.3125 -20.410156 15.3125 -17.046875 L 15.3125 0 L 4.828125 0 L 4.828125 -36.125 L 14.84375 -36.125 Z M 14.84375 -31.359375 "/></g></g></g><g fill="#e76034" fill-opacity="1"><g transform="translate(249.422969, 149.610172)"><g><path d="M 4.828125 -36.125 L 15.3125 -36.125 L 15.3125 0 L 4.828125 0 Z M 10.078125 -41.15625 C 8.148438 -41.15625 6.582031 -41.710938 5.375 -42.828125 C 4.164062 -43.953125 3.5625 -45.34375 3.5625 -47 C 3.5625 -48.65625 4.164062 -50.039062 5.375 -51.15625 C 6.582031 -52.28125 8.148438 -52.84375 10.078125 -52.84375 C 12.003906 -52.84375 13.570312 -52.300781 14.78125 -51.21875 C 15.988281 -50.144531 16.59375 -48.804688 16.59375 -47.203125 C 16.59375 -45.453125 15.988281 -44.003906 14.78125 -42.859375 C 13.570312 -41.722656 12.003906 -41.15625 10.078125 -41.15625 Z M 10.078125 -41.15625 "/></g></g></g><g fill="#e76034" fill-opacity="1"><g transform="translate(269.633951, 149.610172)"><g><path d="M 40.21875 -17.921875 C 40.21875 -17.785156 40.148438 -16.847656 40.015625 -15.109375 L 12.6875 -15.109375 C 13.175781 -12.867188 14.335938 -11.097656 16.171875 -9.796875 C 18.015625 -8.503906 20.300781 -7.859375 23.03125 -7.859375 C 24.90625 -7.859375 26.570312 -8.132812 28.03125 -8.6875 C 29.488281 -9.25 30.84375 -10.132812 32.09375 -11.34375 L 37.671875 -5.296875 C 34.265625 -1.410156 29.296875 0.53125 22.765625 0.53125 C 18.691406 0.53125 15.085938 -0.257812 11.953125 -1.84375 C 8.816406 -3.4375 6.398438 -5.640625 4.703125 -8.453125 C 3.003906 -11.273438 2.15625 -14.476562 2.15625 -18.0625 C 2.15625 -21.59375 2.992188 -24.78125 4.671875 -27.625 C 6.347656 -30.46875 8.648438 -32.679688 11.578125 -34.265625 C 14.515625 -35.859375 17.796875 -36.65625 21.421875 -36.65625 C 24.953125 -36.65625 28.148438 -35.894531 31.015625 -34.375 C 33.878906 -32.851562 36.128906 -30.671875 37.765625 -27.828125 C 39.398438 -24.984375 40.21875 -21.679688 40.21875 -17.921875 Z M 21.484375 -28.734375 C 19.109375 -28.734375 17.113281 -28.0625 15.5 -26.71875 C 13.894531 -25.375 12.914062 -23.539062 12.5625 -21.21875 L 30.34375 -21.21875 C 29.988281 -23.5 29.003906 -25.320312 27.390625 -26.6875 C 25.773438 -28.050781 23.804688 -28.734375 21.484375 -28.734375 Z M 21.484375 -28.734375 "/></g></g></g><g fill="#e76034" fill-opacity="1"><g transform="translate(312.003165, 149.610172)"><g><path d="M 16.984375 0.53125 C 13.984375 0.53125 11.050781 0.164062 8.1875 -0.5625 C 5.320312 -1.300781 3.039062 -2.234375 1.34375 -3.359375 L 4.828125 -10.875 C 6.441406 -9.84375 8.390625 -9.003906 10.671875 -8.359375 C 12.953125 -7.710938 15.191406 -7.390625 17.390625 -7.390625 C 21.816406 -7.390625 24.03125 -8.484375 24.03125 -10.671875 C 24.03125 -11.703125 23.425781 -12.441406 22.21875 -12.890625 C 21.007812 -13.335938 19.15625 -13.71875 16.65625 -14.03125 C 13.695312 -14.476562 11.253906 -14.992188 9.328125 -15.578125 C 7.410156 -16.160156 5.742188 -17.1875 4.328125 -18.65625 C 2.921875 -20.132812 2.21875 -22.238281 2.21875 -24.96875 C 2.21875 -27.257812 2.875 -29.285156 4.1875 -31.046875 C 5.507812 -32.816406 7.4375 -34.191406 9.96875 -35.171875 C 12.5 -36.160156 15.488281 -36.65625 18.9375 -36.65625 C 21.488281 -36.65625 24.023438 -36.375 26.546875 -35.8125 C 29.078125 -35.257812 31.171875 -34.488281 32.828125 -33.5 L 29.34375 -26.046875 C 26.164062 -27.835938 22.695312 -28.734375 18.9375 -28.734375 C 16.695312 -28.734375 15.015625 -28.421875 13.890625 -27.796875 C 12.773438 -27.171875 12.21875 -26.363281 12.21875 -25.375 C 12.21875 -24.257812 12.820312 -23.476562 14.03125 -23.03125 C 15.238281 -22.582031 17.164062 -22.15625 19.8125 -21.75 C 22.757812 -21.257812 25.171875 -20.734375 27.046875 -20.171875 C 28.929688 -19.617188 30.566406 -18.601562 31.953125 -17.125 C 33.347656 -15.644531 34.046875 -13.582031 34.046875 -10.9375 C 34.046875 -8.707031 33.375 -6.71875 32.03125 -4.96875 C 30.6875 -3.21875 28.726562 -1.863281 26.15625 -0.90625 C 23.582031 0.0507812 20.523438 0.53125 16.984375 0.53125 Z M 16.984375 0.53125 "/></g></g></g><g fill="#e76034" fill-opacity="1"><g transform="translate(65.644013, 209.114713)"><g><path d="M 15.3125 -38.140625 L 0.265625 -38.140625 L 0.265625 -47 L 41.21875 -47 L 41.21875 -38.140625 L 26.1875 -38.140625 L 26.1875 0 L 15.3125 0 Z M 15.3125 -38.140625 "/></g></g></g><g fill="#e76034" fill-opacity="1"><g transform="translate(107.140329, 209.114713)"><g><path d="M 14.84375 -31.359375 C 16.09375 -33.097656 17.78125 -34.414062 19.90625 -35.3125 C 22.03125 -36.207031 24.484375 -36.65625 27.265625 -36.65625 L 27.265625 -26.984375 C 26.097656 -27.078125 25.3125 -27.125 24.90625 -27.125 C 21.90625 -27.125 19.554688 -26.285156 17.859375 -24.609375 C 16.160156 -22.929688 15.3125 -20.410156 15.3125 -17.046875 L 15.3125 0 L 4.828125 0 L 4.828125 -36.125 L 14.84375 -36.125 Z M 14.84375 -31.359375 "/></g></g></g><g fill="#e76034" fill-opacity="1"><g transform="translate(136.080309, 209.114713)"><g><path d="M 19.40625 -36.65625 C 25 -36.65625 29.296875 -35.320312 32.296875 -32.65625 C 35.296875 -30 36.796875 -25.984375 36.796875 -20.609375 L 36.796875 0 L 26.984375 0 L 26.984375 -4.5 C 25.015625 -1.144531 21.347656 0.53125 15.984375 0.53125 C 13.203125 0.53125 10.789062 0.0625 8.75 -0.875 C 6.71875 -1.8125 5.164062 -3.109375 4.09375 -4.765625 C 3.019531 -6.421875 2.484375 -8.300781 2.484375 -10.40625 C 2.484375 -13.757812 3.75 -16.398438 6.28125 -18.328125 C 8.8125 -20.253906 12.71875 -21.21875 18 -21.21875 L 26.3125 -21.21875 C 26.3125 -23.5 25.617188 -25.253906 24.234375 -26.484375 C 22.847656 -27.710938 20.769531 -28.328125 18 -28.328125 C 16.070312 -28.328125 14.175781 -28.023438 12.3125 -27.421875 C 10.457031 -26.816406 8.882812 -26 7.59375 -24.96875 L 3.828125 -32.296875 C 5.796875 -33.679688 8.15625 -34.753906 10.90625 -35.515625 C 13.664062 -36.273438 16.5 -36.65625 19.40625 -36.65625 Z M 18.59375 -6.515625 C 20.382812 -6.515625 21.972656 -6.925781 23.359375 -7.75 C 24.753906 -8.582031 25.738281 -9.800781 26.3125 -11.40625 L 26.3125 -15.109375 L 19.140625 -15.109375 C 14.835938 -15.109375 12.6875 -13.695312 12.6875 -10.875 C 12.6875 -9.53125 13.210938 -8.46875 14.265625 -7.6875 C 15.316406 -6.90625 16.757812 -6.515625 18.59375 -6.515625 Z M 18.59375 -6.515625 "/></g></g></g><g fill="#e76034" fill-opacity="1"><g transform="translate(177.509465, 209.114713)"><g><path d="M 22.296875 0.53125 C 18.441406 0.53125 14.976562 -0.257812 11.90625 -1.84375 C 8.84375 -3.4375 6.453125 -5.640625 4.734375 -8.453125 C 3.015625 -11.273438 2.15625 -14.476562 2.15625 -18.0625 C 2.15625 -21.644531 3.015625 -24.84375 4.734375 -27.65625 C 6.453125 -30.476562 8.84375 -32.679688 11.90625 -34.265625 C 14.976562 -35.859375 18.441406 -36.65625 22.296875 -36.65625 C 26.097656 -36.65625 29.421875 -35.859375 32.265625 -34.265625 C 35.109375 -32.679688 37.175781 -30.410156 38.46875 -27.453125 L 30.34375 -23.09375 C 28.46875 -26.40625 25.757812 -28.0625 22.21875 -28.0625 C 19.488281 -28.0625 17.226562 -27.164062 15.4375 -25.375 C 13.644531 -23.582031 12.75 -21.144531 12.75 -18.0625 C 12.75 -14.96875 13.644531 -12.523438 15.4375 -10.734375 C 17.226562 -8.953125 19.488281 -8.0625 22.21875 -8.0625 C 25.800781 -8.0625 28.507812 -9.71875 30.34375 -13.03125 L 38.46875 -8.59375 C 37.175781 -5.726562 35.109375 -3.488281 32.265625 -1.875 C 29.421875 -0.269531 26.097656 0.53125 22.296875 0.53125 Z M 22.296875 0.53125 "/></g></g></g><g fill="#e76034" fill-opacity="1"><g transform="translate(217.192826, 209.114713)"><g><path d="M 20.34375 -14.171875 L 15.3125 -9.203125 L 15.3125 0 L 4.828125 0 L 4.828125 -49.8125 L 15.3125 -49.8125 L 15.3125 -21.625 L 30.609375 -36.125 L 43.109375 -36.125 L 28.0625 -20.8125 L 44.453125 0 L 31.75 0 Z M 20.34375 -14.171875 "/></g></g></g><g fill="#e76034" fill-opacity="1"><g transform="translate(261.509262, 209.114713)"><g><path d="M 4.828125 -36.125 L 15.3125 -36.125 L 15.3125 0 L 4.828125 0 Z M 10.078125 -41.15625 C 8.148438 -41.15625 6.582031 -41.710938 5.375 -42.828125 C 4.164062 -43.953125 3.5625 -45.34375 3.5625 -47 C 3.5625 -48.65625 4.164062 -50.039062 5.375 -51.15625 C 6.582031 -52.28125 8.148438 -52.84375 10.078125 -52.84375 C 12.003906 -52.84375 13.570312 -52.300781 14.78125 -51.21875 C 15.988281 -50.144531 16.59375 -48.804688 16.59375 -47.203125 C 16.59375 -45.453125 15.988281 -44.003906 14.78125 -42.859375 C 13.570312 -41.722656 12.003906 -41.15625 10.078125 -41.15625 Z M 10.078125 -41.15625 "/></g></g></g><g fill="#e76034" fill-opacity="1"><g transform="translate(281.720244, 209.114713)"><g><path d="M 26.796875 -36.65625 C 31.265625 -36.65625 34.875 -35.3125 37.625 -32.625 C 40.382812 -29.945312 41.765625 -25.960938 41.765625 -20.671875 L 41.765625 0 L 31.28125 0 L 31.28125 -19.0625 C 31.28125 -21.925781 30.65625 -24.0625 29.40625 -25.46875 C 28.15625 -26.882812 26.34375 -27.59375 23.96875 -27.59375 C 21.332031 -27.59375 19.226562 -26.773438 17.65625 -25.140625 C 16.09375 -23.503906 15.3125 -21.078125 15.3125 -17.859375 L 15.3125 0 L 4.828125 0 L 4.828125 -36.125 L 14.84375 -36.125 L 14.84375 -31.890625 C 16.226562 -33.410156 17.945312 -34.582031 20 -35.40625 C 22.0625 -36.238281 24.328125 -36.65625 26.796875 -36.65625 Z M 26.796875 -36.65625 "/></g></g></g><g fill="#e76034" fill-opacity="1"><g transform="translate(328.118222, 209.114713)"><g><path d="M 42.09375 -36.125 L 42.09375 -6.046875 C 42.09375 0.578125 40.367188 5.5 36.921875 8.71875 C 33.472656 11.945312 28.441406 13.5625 21.828125 13.5625 C 18.328125 13.5625 15.007812 13.132812 11.875 12.28125 C 8.75 11.4375 6.15625 10.207031 4.09375 8.59375 L 8.265625 1.078125 C 9.785156 2.328125 11.707031 3.320312 14.03125 4.0625 C 16.363281 4.800781 18.691406 5.171875 21.015625 5.171875 C 24.640625 5.171875 27.3125 4.351562 29.03125 2.71875 C 30.757812 1.082031 31.625 -1.390625 31.625 -4.703125 L 31.625 -6.25 C 28.894531 -3.25 25.085938 -1.75 20.203125 -1.75 C 16.890625 -1.75 13.859375 -2.472656 11.109375 -3.921875 C 8.359375 -5.378906 6.175781 -7.425781 4.5625 -10.0625 C 2.957031 -12.707031 2.15625 -15.753906 2.15625 -19.203125 C 2.15625 -22.648438 2.957031 -25.691406 4.5625 -28.328125 C 6.175781 -30.972656 8.359375 -33.019531 11.109375 -34.46875 C 13.859375 -35.925781 16.890625 -36.65625 20.203125 -36.65625 C 25.441406 -36.65625 29.425781 -34.929688 32.15625 -31.484375 L 32.15625 -36.125 Z M 22.296875 -10.34375 C 25.066406 -10.34375 27.332031 -11.15625 29.09375 -12.78125 C 30.863281 -14.414062 31.75 -16.554688 31.75 -19.203125 C 31.75 -21.835938 30.863281 -23.972656 29.09375 -25.609375 C 27.332031 -27.242188 25.066406 -28.0625 22.296875 -28.0625 C 19.515625 -28.0625 17.226562 -27.242188 15.4375 -25.609375 C 13.644531 -23.972656 12.75 -21.835938 12.75 -19.203125 C 12.75 -16.554688 13.644531 -14.414062 15.4375 -12.78125 C 17.226562 -11.15625 19.515625 -10.34375 22.296875 -10.34375 Z M 22.296875 -10.34375 "/></g></g></g></svg>